<mxfile host="app.diagrams.net" agent="Mozilla/5.0 (Windows NT 10.0; Win64; x64) AppleWebKit/537.36 (KHTML, like Gecko) Chrome/129.0.0.0 Safari/537.36" version="24.7.8">
  <diagram name="PÃ¡gina-1" id="aR7twV5hU4MAZG7qXEsr">
    <mxGraphModel dx="794" dy="420" grid="1" gridSize="10" guides="1" tooltips="1" connect="1" arrows="1" fold="1" page="1" pageScale="1" pageWidth="827" pageHeight="1169" math="0" shadow="0">
      <root>
        <mxCell id="0" />
        <mxCell id="1" parent="0" />
        <mxCell id="IzLoNDgW5AM4SwRs348z-1" value="Cliente" style="rounded=0;whiteSpace=wrap;html=1;" vertex="1" parent="1">
          <mxGeometry x="150" y="250" width="120" height="60" as="geometry" />
        </mxCell>
        <mxCell id="IzLoNDgW5AM4SwRs348z-2" value="Producto" style="rounded=0;whiteSpace=wrap;html=1;" vertex="1" parent="1">
          <mxGeometry x="640" y="250" width="120" height="60" as="geometry" />
        </mxCell>
        <mxCell id="IzLoNDgW5AM4SwRs348z-3" value="DNI" style="ellipse;whiteSpace=wrap;html=1;" vertex="1" parent="1">
          <mxGeometry x="10" y="60" width="90" height="60" as="geometry" />
        </mxCell>
        <mxCell id="IzLoNDgW5AM4SwRs348z-4" value="NOMBRE" style="ellipse;whiteSpace=wrap;html=1;" vertex="1" parent="1">
          <mxGeometry x="110" y="60" width="90" height="60" as="geometry" />
        </mxCell>
        <mxCell id="IzLoNDgW5AM4SwRs348z-5" value="APELLIDO" style="ellipse;whiteSpace=wrap;html=1;" vertex="1" parent="1">
          <mxGeometry x="210" y="60" width="90" height="60" as="geometry" />
        </mxCell>
        <mxCell id="IzLoNDgW5AM4SwRs348z-6" value="DIRECCION" style="ellipse;whiteSpace=wrap;html=1;" vertex="1" parent="1">
          <mxGeometry x="310" y="60" width="90" height="60" as="geometry" />
        </mxCell>
        <mxCell id="IzLoNDgW5AM4SwRs348z-7" value="" style="endArrow=none;html=1;rounded=0;" edge="1" parent="1">
          <mxGeometry width="50" height="50" relative="1" as="geometry">
            <mxPoint x="50" y="160" as="sourcePoint" />
            <mxPoint x="50" y="120" as="targetPoint" />
            <Array as="points">
              <mxPoint x="50" y="120" />
            </Array>
          </mxGeometry>
        </mxCell>
        <mxCell id="IzLoNDgW5AM4SwRs348z-8" value="" style="endArrow=none;html=1;rounded=0;" edge="1" parent="1">
          <mxGeometry width="50" height="50" relative="1" as="geometry">
            <mxPoint x="157" y="160" as="sourcePoint" />
            <mxPoint x="157" y="120" as="targetPoint" />
            <Array as="points">
              <mxPoint x="157" y="120" />
            </Array>
          </mxGeometry>
        </mxCell>
        <mxCell id="IzLoNDgW5AM4SwRs348z-9" value="" style="endArrow=none;html=1;rounded=0;" edge="1" parent="1">
          <mxGeometry width="50" height="50" relative="1" as="geometry">
            <mxPoint x="255" y="161" as="sourcePoint" />
            <mxPoint x="255" y="121" as="targetPoint" />
            <Array as="points">
              <mxPoint x="255" y="121" />
            </Array>
          </mxGeometry>
        </mxCell>
        <mxCell id="IzLoNDgW5AM4SwRs348z-10" value="" style="endArrow=none;html=1;rounded=0;" edge="1" parent="1">
          <mxGeometry width="50" height="50" relative="1" as="geometry">
            <mxPoint x="360" y="161" as="sourcePoint" />
            <mxPoint x="360" y="121" as="targetPoint" />
            <Array as="points">
              <mxPoint x="360" y="121" />
            </Array>
          </mxGeometry>
        </mxCell>
        <mxCell id="IzLoNDgW5AM4SwRs348z-11" value="" style="endArrow=none;html=1;rounded=0;" edge="1" parent="1">
          <mxGeometry width="50" height="50" relative="1" as="geometry">
            <mxPoint x="50" y="160" as="sourcePoint" />
            <mxPoint x="360" y="160" as="targetPoint" />
          </mxGeometry>
        </mxCell>
        <mxCell id="IzLoNDgW5AM4SwRs348z-12" value="" style="endArrow=classic;html=1;rounded=0;" edge="1" parent="1" target="IzLoNDgW5AM4SwRs348z-1">
          <mxGeometry width="50" height="50" relative="1" as="geometry">
            <mxPoint x="210" y="160" as="sourcePoint" />
            <mxPoint x="430" y="200" as="targetPoint" />
          </mxGeometry>
        </mxCell>
      </root>
    </mxGraphModel>
  </diagram>
</mxfile>
